<svg width="34" height="34" viewBox="0 0 34 34" fill="none" xmlns="http://www.w3.org/2000/svg">
<g clip-path="url(#clip0_1302_17)">
<path d="M31.0958 27.0045C30.8907 27.0039 30.6895 26.948 30.5135 26.8425C30.3375 26.737 30.1933 26.586 30.096 26.4053C29.9988 26.2246 29.9522 26.021 29.9611 25.8161C29.97 25.6111 30.0341 25.4123 30.1467 25.2408C31.1922 23.6909 31.7404 21.8677 31.7404 19.9722C31.7404 18.0767 31.1922 16.2534 30.1467 14.7008C30.0637 14.5779 30.0058 14.4398 29.9763 14.2945C29.9468 14.1491 29.9463 13.9994 29.9747 13.8539C30.0031 13.7083 30.06 13.5698 30.142 13.4463C30.224 13.3228 30.3296 13.2166 30.4527 13.1339C30.5756 13.0506 30.7137 12.9923 30.8592 12.9625C31.0047 12.9326 31.1546 12.9317 31.3004 12.9599C31.4462 12.988 31.585 13.0447 31.7089 13.1266C31.8328 13.2085 31.9393 13.314 32.0223 13.4371C33.318 15.3735 34.0065 17.6523 34 19.9821C34.0061 22.3114 33.3175 24.5897 32.0223 26.5257C31.929 26.684 31.7951 26.8146 31.6345 26.904C31.4739 26.9934 31.2923 27.0384 31.1086 27.0343L31.0958 27.0045ZM27.8517 25.1714C27.6264 25.1712 27.4066 25.1025 27.2212 24.9744C27.0978 24.8941 26.9917 24.7899 26.9092 24.6678C26.8268 24.5458 26.7697 24.4084 26.7413 24.2639C26.7129 24.1194 26.7137 23.9707 26.7439 23.8265C26.774 23.6823 26.8328 23.5457 26.9167 23.4246C27.6103 22.411 27.9794 21.2104 27.9749 19.9821C27.9749 18.7709 27.6094 17.5809 26.9167 16.5382C26.5653 16.0282 26.6985 15.3284 27.2212 14.9869C27.744 14.6455 28.4353 14.7744 28.7881 15.3057C29.7279 16.6913 30.2316 18.3263 30.2345 20.0005C30.2345 21.7019 29.7358 23.3155 28.7881 24.6968C28.689 24.8551 28.5508 24.9852 28.3867 25.0745C28.2227 25.1639 28.0384 25.2094 27.8517 25.2068V25.1714ZM22.5675 15.0379C22.3455 12.8252 21.3094 10.7738 19.6602 9.28197C18.011 7.79011 15.8663 6.96414 13.6425 6.96436C11.7717 6.96685 9.94815 7.55265 8.42589 8.6402C6.90362 9.72775 5.75836 11.2629 5.14958 13.0319C2.24967 13.4598 0 15.9644 0 18.9834C0.00374848 20.582 0.641051 22.114 1.77226 23.2436C2.90348 24.3732 4.43635 25.0084 6.035 25.0099H21.488C22.8256 25.0099 24.1086 24.4794 25.0557 23.5347C26.0027 22.5901 26.5365 21.3084 26.5398 19.9708C26.5398 17.5539 24.8398 15.538 22.5661 15.0408V15.0379H22.5675ZM21.488 22.7531H6.03925C5.03925 22.7527 4.08009 22.3564 3.37153 21.6508C2.66296 20.9451 2.26266 19.9876 2.25817 18.9876C2.26042 17.9869 2.66 17.0281 3.36905 16.322C4.0781 15.6158 5.03857 15.2202 6.03925 15.2221C7.04508 15.2221 7.99567 15.6259 8.71108 16.3285C8.8152 16.4341 8.93927 16.5179 9.07607 16.5752C9.21286 16.6324 9.35967 16.6619 9.50796 16.6619C9.65624 16.6619 9.80305 16.6324 9.93985 16.5752C10.0767 16.5179 10.2007 16.4341 10.3048 16.3285C10.7298 15.9021 10.7298 15.1796 10.3048 14.7348C9.53414 13.9709 8.57292 13.4275 7.52108 13.1609C8.05282 11.9892 8.91075 10.9956 9.99229 10.2987C11.0738 9.60177 12.3332 9.23111 13.6198 9.23102C15.3991 9.23476 17.1045 9.94305 18.3629 11.2009C19.6213 12.4588 20.3303 14.1639 20.3348 15.9432C20.3348 16.6685 20.2286 17.3684 19.9948 18.0484C19.9411 18.2186 19.9273 18.399 19.9547 18.5755C19.9821 18.752 20.0498 18.9197 20.1526 19.0657C20.2554 19.2117 20.3906 19.332 20.5475 19.4173C20.7044 19.5025 20.8789 19.5503 21.0573 19.5571C21.2923 19.5573 21.5214 19.4835 21.7121 19.3462C21.9028 19.2089 22.0455 19.015 22.1198 18.7921C22.2686 18.3459 22.3748 17.8996 22.4386 17.4321C22.9616 17.6356 23.4114 17.9916 23.7297 18.4539C24.048 18.9161 24.2201 19.4634 24.2236 20.0246C24.2258 20.7654 23.9339 21.4768 23.4119 22.0025C22.89 22.5282 22.1806 22.8252 21.4398 22.8282L21.488 22.7531Z" fill="white"/>
</g>
<defs>
<clipPath id="clip0_1302_17">
<rect width="34" height="34" fill="white"/>
</clipPath>
</defs>
</svg>
