<svg width="20" height="24" viewBox="0 0 20 24" fill="none" xmlns="http://www.w3.org/2000/svg">
<path d="M2.652 0H4.092L5.08 3.702L5.996 0H7.45L5.785 5.505V9.262H4.354V5.505L2.652 0V0ZM9.246 2.373C8.127 2.373 7.385 3.113 7.385 4.208V7.557C7.385 8.761 8.014 9.388 9.246 9.388C10.268 9.388 11.072 8.705 11.072 7.557V4.208C11.072 3.139 10.275 2.373 9.246 2.373ZM9.777 7.5C9.777 7.872 9.587 8.146 9.245 8.146C8.894 8.146 8.691 7.859 8.691 7.5V4.321C8.691 3.947 8.863 3.67 9.22 3.67C9.61 3.67 9.777 3.939 9.777 4.321V7.5ZM14.506 2.43V7.616C14.351 7.81 14.006 8.128 13.759 8.128C13.488 8.128 13.421 7.942 13.421 7.668V2.43H12.151V8.14C12.151 8.815 12.357 9.36 13.038 9.36C13.422 9.36 13.956 9.16 14.506 8.507V9.261H15.776V2.43H14.506ZM16.709 16.288C16.261 16.288 16.168 16.603 16.168 17.051V17.71H17.237V17.05C17.238 16.61 17.145 16.288 16.709 16.288ZM12.006 16.328C11.922 16.371 11.839 16.437 11.756 16.526V20.581C11.855 20.687 11.95 20.763 12.043 20.81C12.24 20.91 12.528 20.917 12.662 20.743C12.732 20.651 12.767 20.502 12.767 20.294V16.935C12.767 16.715 12.724 16.549 12.638 16.435C12.491 16.242 12.218 16.221 12.006 16.328ZM16.833 11.133C14.229 10.956 5.767 10.956 3.167 11.133C0.353 11.325 0.021 13.025 0 17.5C0.021 21.967 0.35 23.675 3.167 23.867C5.767 24.044 14.229 24.044 16.833 23.867C19.647 23.675 19.979 21.974 20 17.5C19.979 13.033 19.65 11.325 16.833 11.133ZM4.509 21.819H3.146V14.279H1.736V12.999H5.918V14.279H4.508V21.819H4.509ZM9.355 21.819H8.145V21.101C7.922 21.366 7.69 21.568 7.449 21.706C6.797 22.08 5.902 22.071 5.902 20.751V15.313H7.111V20.301C7.111 20.563 7.174 20.739 7.433 20.739C7.669 20.739 7.997 20.436 8.144 20.252V15.313H9.354V21.819H9.355ZM14.012 20.471C14.012 21.276 13.711 21.902 12.906 21.902C12.463 21.902 12.094 21.74 11.757 21.319V21.819H10.536V12.999H11.757V15.839C12.03 15.506 12.401 15.231 12.833 15.231C13.719 15.231 14.013 15.98 14.013 16.862V20.471H14.012ZM18.483 18.719H16.169V19.947C16.169 20.435 16.211 20.857 16.697 20.857C17.208 20.857 17.238 20.513 17.238 19.947V19.495H18.483V19.984C18.483 21.237 17.945 21.997 16.67 21.997C15.515 21.997 14.924 21.155 14.924 19.984V17.063C14.924 15.934 15.67 15.149 16.761 15.149C17.922 15.149 18.482 15.887 18.482 17.063V18.719H18.483Z" fill="white"/>
</svg>
